<?xml version="1.0" encoding="UTF-8"?><svg xmlns="http://www.w3.org/2000/svg" xmlns:xlink="http://www.w3.org/1999/xlink" version="1.1" id="Layer_1" x="0px" y="0px" viewBox="0 0 48 48" xml:space="preserve"><path d="M15.525 12.883A13.911 13.911 0 0 1 24 10c3.046 0 5.859.989 8.159 2.646L36 8.038C32.652 5.515 28.505 4 24 4c-4.707 0-9.032 1.645-12.452 4.376l3.977 4.507z" fill="#F97F00"/><path d="M37.536 9.319l-3.839 4.606C36.344 16.474 38 20.044 38 24c0 7.72-6.28 14-14 14s-14-6.28-14-14c0-3.814 1.537-7.273 4.019-9.8l-3.972-4.502C6.323 13.333 4 18.397 4 24c0 11.028 8.972 20 20 20s20-8.972 20-20c0-5.805-2.501-11.024-6.464-14.681z" fill="#424242"/><path d="M33 36l-8-8V15l3 8 9 9-4 4z" fill="#424242" id="Layer_3"/><path d="M15 36l8-8V15l-3 8-9 9 4 4z" fill="#424242" id="Layer_3_2_"/><metadata><rdf:RDF xmlns:rdf="http://www.w3.org/1999/02/22-rdf-syntax-ns#" xmlns:rdfs="http://www.w3.org/2000/01/rdf-schema#" xmlns:dc="http://purl.org/dc/elements/1.1/"><rdf:Description about="https://iconscout.com/legal#licenses" dc:title="overwatch" dc:description="overwatch" dc:publisher="Iconscout" dc:date="2017-12-15" dc:format="image/svg+xml" dc:language="en"><dc:creator><rdf:Bag><rdf:li>Icons8</rdf:li></rdf:Bag></dc:creator></rdf:Description></rdf:RDF></metadata></svg>